<?xml version="1.0" encoding="UTF-8" standalone="no"?>
<svg
   xmlns:dc="http://purl.org/dc/elements/1.1/"
   xmlns:cc="http://creativecommons.org/ns#"
   xmlns:rdf="http://www.w3.org/1999/02/22-rdf-syntax-ns#"
   xmlns:svg="http://www.w3.org/2000/svg"
   xmlns="http://www.w3.org/2000/svg"
   xmlns:sodipodi="http://sodipodi.sourceforge.net/DTD/sodipodi-0.dtd"
   xmlns:inkscape="http://www.inkscape.org/namespaces/inkscape"
   version="1.1"
   id="svg2"
   xml:space="preserve"
   width="793.70135"
   height="1122.52"
   viewBox="0 0 793.70135 1122.52"
   sodipodi:docname="berjaya.ai"><metadata
     id="metadata8"><rdf:RDF><cc:Work
         rdf:about=""><dc:format>image/svg+xml</dc:format><dc:type
           rdf:resource="http://purl.org/dc/dcmitype/StillImage" /></cc:Work></rdf:RDF></metadata><defs
     id="defs6"><clipPath
       clipPathUnits="userSpaceOnUse"
       id="clipPath18"><path
         d="M 0,841.89 H 595.276 V 0 H 0 Z"
         id="path16" /></clipPath></defs><sodipodi:namedview
     pagecolor="#ffffff"
     bordercolor="#666666"
     borderopacity="1"
     objecttolerance="10"
     gridtolerance="10"
     guidetolerance="10"
     inkscape:pageopacity="0"
     inkscape:pageshadow="2"
     inkscape:window-width="640"
     inkscape:window-height="480"
     id="namedview4" /><g
     id="g10"
     inkscape:groupmode="layer"
     inkscape:label="berjaya"
     transform="matrix(1.3333333,0,0,-1.3333333,0,1122.52)"><g
       id="g12"><g
         id="g14"
         clip-path="url(#clipPath18)"><path
           d="m 72.753,406.745 h 39.059 c 14.766,0 23.489,-2.778 23.489,-19.033 0,-9.416 -1.883,-15.562 -11.696,-17.148 v -0.79 c 11.003,-0.696 12.888,-7.339 12.888,-16.656 0,-18.235 -8.526,-20.719 -24.287,-20.719 H 72.753 Z M 92.58,377.009 h 14.274 c 6.938,0 8.621,1.186 8.621,7.135 0,4.46 -0.688,6.144 -6.24,6.346 H 92.58 Z m 0,-28.355 h 14.967 c 6.447,0 9.12,1.489 9.12,7.538 0,6.143 -2.279,7.036 -8.721,7.036 H 92.58 Z"
           style="fill:#c09a05;fill-opacity:1;fill-rule:nonzero;stroke:none"
           id="path20" /><path
           d="m 163.648,376.906 h 31.72 v -13.778 h -31.72 v -14.474 h 34.495 v -16.255 h -54.318 v 74.346 h 53.622 V 390.49 h -33.799 z"
           style="fill:#c09a05;fill-opacity:1;fill-rule:nonzero;stroke:none"
           id="path22" /><path
           d="m 242.023,369.375 c 8.524,0 8.227,3.175 8.227,11.599 0,6.638 -1.683,8.524 -8.227,8.524 h -15.361 v -20.123 z m -35.188,37.37 h 38.261 c 17.152,-0.299 25.576,-3.965 25.576,-22.504 0,-12.387 0,-19.622 -14.077,-22.893 v -0.793 c 8.127,-0.3 13.38,-4.759 13.38,-13.186 v -14.97 h -19.824 v 10.41 c 0.197,5.55 -2.177,9.319 -8.128,9.319 h -15.361 v -19.729 h -19.827 z"
           style="fill:#c09a05;fill-opacity:1;fill-rule:nonzero;stroke:none"
           id="path24" /><path
           d="m 328.55,406.745 v -51.443 c 0,-19.925 -5.946,-23.496 -26.764,-23.496 -20.619,0 -24.881,4.858 -24.881,25.576 v 6.145 h 18.836 v -6.145 c 0,-6.15 0.691,-8.329 6.045,-8.329 6.145,0 6.938,1.586 6.938,6.249 v 51.443 z"
           style="fill:#c09a05;fill-opacity:1;fill-rule:nonzero;stroke:none"
           id="path26" /><path
           d="m 355.527,345.188 -3.671,-12.789 h -20.609 l 22.3,74.346 h 30.131 l 22.598,-74.346 h -20.219 l -3.862,12.789 z m 13.482,46.689 h -0.199 l -9.023,-32.218 h 18.439 z"
           style="fill:#c09a05;fill-opacity:1;fill-rule:nonzero;stroke:none"
           id="path28" /><path
           d="m 437.271,358.47 v -26.071 h -19.826 v 26.071 l -26.369,48.275 h 22.698 l 13.288,-28.644 h 0.693 l 13.677,28.644 h 22.997 z"
           style="fill:#c09a05;fill-opacity:1;fill-rule:nonzero;stroke:none"
           id="path30" /><path
           d="m 473.504,345.188 -3.671,-12.789 h -20.619 l 22.309,74.346 h 30.126 l 22.604,-74.346 h -20.22 l -3.87,12.789 z m 13.476,46.689 h -0.199 l -9.012,-32.218 h 18.429 z"
           style="fill:#c09a05;fill-opacity:1;fill-rule:nonzero;stroke:none"
           id="path32" /><path
           d="m 376.925,502.944 c -0.036,-9.977 0,-19.536 0,-26.799 0,-42.955 -52.96,-54.784 -78.491,-32.949 -29.663,-23.487 -78.602,-10.253 -78.602,31.304 0,0 0.082,11.306 0,29.042 -17.756,0 -29.738,-0.204 -29.738,-0.204 -41.559,0 -54.789,48.607 -31.313,78.266 -21.83,25.54 -10,78.27 32.96,78.27 7.779,0 17.525,0.205 28.323,0.205 0,17.283 0.1,28.628 0.1,28.628 0,34.741 44.354,56.384 76.961,29.794 16.132,14.285 44.88,15.872 62.424,3.294 4.588,-3.222 10.559,-10.363 9.735,-9.778 4.62,-6.6 7.736,-14.917 7.736,-24.954 0,-7.428 -0.074,-16.811 0,-27.023 9.528,-0.049 18.586,0 25.628,0 10.04,0 18.354,-2.954 24.959,-7.581 -0.584,0.826 6.554,-5.15 9.774,-9.733 12.584,-17.548 10.988,-46.29 -3.296,-62.435 26.598,-32.602 4.953,-77.347 -29.786,-77.347 0,0 -10.915,0.072 -27.374,0 m -29.972,-6.828 c -9.445,-0.019 -20.182,0 -30.396,0 -0.069,-14.441 0,-24.869 0,-24.869 0,-18.568 30.396,-18.568 30.396,0.536 0,2.294 0.074,12.195 0,24.333 m -66.537,0.798 h -30.341 c -0.071,-15.014 0,-25.667 0,-25.667 0,-18.568 30.341,-18.568 30.341,0.536 0,2.398 0.041,12.11 0,25.131 m -65.994,133.064 h -26.239 c -19.109,0 -19.109,-31.111 -0.54,-31.111 0,0 11.306,0.012 26.666,0 0,10.529 0.113,21.324 0.113,31.111 m -0.275,-97.763 c -0.024,9.498 -0.091,20.17 -0.091,30.419 h -25.873 c -19.109,0 -19.109,-30.419 -0.54,-30.419 0,0 11.146,0.024 26.504,0 m 22.963,0.223 c 0,18.402 0.003,37.277 0.003,49.192 v 48.588 h -9.9 c -0.015,-25.76 0,-54.019 0,-73.045 v -24.958 c 3.195,0 6.583,0.223 9.897,0.223 m 133.241,0.058 v 24.677 c 0,15.744 -0.068,44.872 0,72.257 -3.187,0.015 -6.877,-0.099 -10.197,-0.085 0.067,-19.232 0,-38.044 0,-47.715 0,-9.895 0.176,-29.43 0.176,-49.134 3.163,-0.015 6.972,0.014 10.021,0 m -0.055,-36.428 c -3.014,-0.014 -6.813,0.012 -10.029,0 v -24.726 c 0,-34.737 -56.306,-34.737 -56.306,-0.979 v 92.791 h -5.935 c -0.97,0 -2.672,0.01 -4.491,0 v -91.812 c 0,-34.737 -56.721,-34.737 -56.721,-0.979 v 26.659 h -9.375 v -26.568 c 0.189,-41.651 54.452,-57.692 71.351,-25.682 16.005,-32.461 71.506,-15.879 71.506,27.011 z m -56.603,216.65 c 16.078,11.447 46.148,4.646 46.148,-20.798 0,-4.263 0.109,-14.058 0.147,-25.754 3.619,-0.02 7.264,0.015 10.749,0 0.017,11.399 0.024,20.749 0,25.754 -0.214,47.564 -61.486,49.098 -72.61,21.08 l -1.319,1.897 c -15.121,31.578 -69.773,18.584 -69.773,-21.64 0,0 0.01,-11.012 0,-27.051 3.195,0 6.657,0.011 9.957,0 v 26.695 c 0,33.75 56.143,33.75 56.143,-0.981 0,-11.665 0.164,-62.216 0.242,-93.041 1.875,0.027 3.426,0 4.649,0 1.538,0 3.435,0.009 6.011,0 0,36.921 -0.221,94.022 -0.221,94.022 0,9.025 4.005,15.639 9.877,19.817 M 280.139,531.871 c -0.024,11.224 0.309,21.738 0.309,30.713 -8.619,-0.058 -19.352,0 -30.264,0 0.004,-8.824 0.033,-19.86 0,-30.713 10.495,-0.01 21.524,0.005 29.955,0 m -0.006,66.482 c -0.108,8.77 0.112,20.199 0.058,31.617 -8.823,0 -19.517,0.03 -30.794,0 0.002,-11.838 -0.132,-22.564 -0.05,-31.617 10.99,-0.012 22.021,-0.121 30.786,0 m 0.258,-89.136 c -0.017,3.823 10e-4,6.454 0,10.457 h -93.632 c -33.755,0 -33.755,56.042 0.977,56.042 4.375,0 14.389,0.288 26.497,0.288 v 7.604 c 0,1.564 0,-1.554 0,0 h -27.474 c -33.755,0 -33.755,58.813 0.977,58.813 11.615,0 61.575,0.292 92.428,0.292 -0.012,3.367 0.004,6.901 0,10.155 -2.339,-0.001 -4.641,0 -6.596,0 h -67.875 c -9.682,0 -14.279,2.363 -19.146,2.363 -42.889,0 -52.928,-58.268 -20.466,-74.281 -32.017,-16.898 -20.875,-71.545 20.767,-71.733 h 86.72 z m 66.603,120.317 c -11.006,0.045 -21.861,-0.012 -30.517,0 0.066,-11.023 -0.048,-21.711 0,-30.439 8.853,-0.004 19.559,0.051 30.517,0 -0.019,8.467 0.007,19.591 0,30.439 m 36.783,-0.191 c 0.05,-9.871 0,-20.456 0,-30.562 14.084,-0.086 24.627,0 24.627,0 18.568,0 18.568,30.562 -0.537,30.562 -2.336,0 -11.63,-0.068 -24.09,0 m -36.93,-96.871 c -0.055,10.613 0,21.612 0,30.127 -10.751,0.005 -21.738,-0.014 -30.304,0 0.009,-8.754 0.03,-19.352 0,-30.127 8.709,-0.005 19.445,0.049 30.304,0 m 36.997,-0.323 c 13.966,-0.086 24.56,0 24.56,0 18.568,0 18.568,30.377 -0.537,30.377 -2.307,0 -11.653,-0.005 -24.023,0 0,-10.036 0.03,-20.576 0,-30.377 m -36.549,43.793 v 8.342 c 0,0.891 0,-1.61 0,0 h -49.269 -48.321 c 0.009,-1.973 0,1.271 0,0 0,-1.5 -0.005,-6.143 0,-8.611 19.307,0 38.616,0.043 48.321,0.043 9.926,0 29.482,0.293 49.269,0.226 m 81.813,20.025 c -4.178,-5.867 -10.789,-9.655 -19.816,-9.655 h -25.733 v -5.125 -5.971 c 11.18,-0.038 20.629,0.191 24.75,0.191 34.737,0 34.737,-56.177 0.983,-56.177 h -92.854 c -0.009,-2.78 0.009,-6.845 0,-9.538 43.814,0.024 93.212,0 93.212,0 40.224,0 54.413,54.902 22.839,70.022 l -0.992,0.494 c 28.018,11.119 24.38,72.603 -23.188,72.817 -13.401,0.065 -56.071,0.085 -92.159,0 0.01,-3.635 -0.011,-7.116 0,-10.895 30.877,-0.077 80.581,0 92.159,0 25.448,0 32.254,-30.079 20.799,-46.163 m -148.844,70.006 c -0.019,13.009 0,23.092 0,25.506 0,19.099 -30.729,19.099 -30.729,0.534 0,0 -0.014,-10.457 0,-26.04 10.004,-0.065 20.548,0.082 30.729,0 m 66.694,0.132 c -0.005,12.906 0,22.978 0,25.374 0,19.099 -30.748,19.099 -30.748,0.534 0,0 -0.012,-11.013 0,-25.908 10.236,0 20.813,0.037 30.748,0"
           style="fill:#1e59ae;fill-opacity:1;fill-rule:nonzero;stroke:none"
           id="path34" /><path
           d="m 384.226,497.635 c -0.036,-10.765 0,-21.089 0,-28.919 0,-46.381 -57.167,-59.151 -84.736,-35.578 -32.017,-25.358 -84.857,-11.069 -84.857,33.797 0,0 0.093,12.199 0,31.351 -19.168,0 -32.101,-0.223 -32.101,-0.223 -44.866,0 -59.149,52.477 -33.802,84.498 -23.565,27.567 -10.798,84.493 35.58,84.493 8.396,0 18.92,0.219 30.578,0.219 0,18.663 0.108,30.915 0.108,30.915 0,37.502 47.877,60.866 83.083,32.156 17.424,15.427 48.451,17.138 67.392,3.559 4.946,-3.475 11.404,-11.186 10.513,-10.556 4.989,-7.126 8.334,-16.104 8.334,-26.943 0,-8.014 -0.064,-18.146 0,-29.174 10.295,-0.05 20.074,0 27.686,0 10.836,0 19.811,-3.187 26.938,-8.178 -0.626,0.889 7.081,-5.563 10.557,-10.512 13.586,-18.942 11.867,-49.972 -3.557,-67.397 28.711,-35.199 5.347,-83.508 -32.163,-83.508 0,0 -11.786,0.081 -29.553,0 m -13.66,12.105 h 39.075 c 40.219,0 47.133,55.486 15.561,70.608 28.016,11.114 30.663,72.512 -16.902,72.725 -6.715,0.036 -37.572,0.062 -37.572,0.062 v 13.082 c 0.016,11.394 0.021,20.747 0,25.754 -0.221,47.562 -61.591,44.916 -72.715,16.901 -15.116,31.575 -70.99,24.656 -70.99,-15.566 0,0 0.012,-24.344 0,-40.386 h -0.021 -38.836 c -42.892,0 -51.143,-55.671 -18.677,-71.683 -32.021,-16.899 -24.302,-71.782 17.344,-71.967 h 40.603 l -0.009,-12.195 v -26.574 c 0.188,-41.646 54.573,-49.363 71.478,-17.34 16.009,-32.469 71.371,-24.213 71.371,18.674 v 24.286 13.752 z"
           style="fill:#c09a05;fill-opacity:1;fill-rule:nonzero;stroke:none"
           id="path36" /><path
           d="m 317.53,581.201 c 0,-10.464 -8.483,-18.952 -18.965,-18.952 -10.46,0 -18.94,8.488 -18.94,18.952 0,10.474 8.48,18.954 18.94,18.954 10.482,0 18.965,-8.48 18.965,-18.954"
           style="fill:#c09a05;fill-opacity:1;fill-rule:nonzero;stroke:none"
           id="path38" /></g></g></g></svg>
